<?xml version="1.0" encoding="iso-8859-1"?>
<!-- Uploaded to: SVG Repo, www.svgrepo.com, Generator: SVG Repo Mixer Tools -->
<svg fill="#000000" version="1.1" id="Layer_1" xmlns="http://www.w3.org/2000/svg" xmlns:xlink="http://www.w3.org/1999/xlink" 
	 viewBox="0 0 512 512" xml:space="preserve">
<g>
	<g>
		<path d="M358.4,371.933c-45.993,33.844-120.624,20.827-163.146-9.546c0,0-0.868-0.868-1.736-0.868
			c-53.803-37.315-134.508-24.298-181.369,9.546l-0.868,0.868l11.281,13.017c48.597-34.712,121.491-39.051,163.146-8.678
			c0,0,0.868,0.868,1.736,0.868c27.769,19.092,65.953,31.241,103.268,31.241c28.637,0,56.407-6.942,78.102-22.563L358.4,371.933z"/>
	</g>
</g>
<g>
	<g>
		<path d="M370.549,345.031L242.983,217.465v-48.597c0-5.207-3.471-8.678-8.678-8.678h-86.78c-5.207,0-8.678,3.471-8.678,8.678
			v48.597L11.281,345.031c-1.736,1.736-2.603,3.471-2.603,6.075v72.895c0,36.447,29.505,65.953,65.953,65.953H307.2
			c36.447,0,65.953-29.505,65.953-65.953v-72.895C373.153,348.503,372.285,346.767,370.549,345.031z M355.797,424.001
			c0,26.902-21.695,48.597-48.597,48.597H74.63c-26.902,0-48.597-21.695-48.597-48.597v-69.424L153.6,227.011
			c1.736-1.736,2.603-3.471,2.603-6.075v-43.39h69.424v43.39c0,2.603,0.868,4.339,2.603,6.075l127.566,127.566V424.001z"/>
	</g>
</g>
<g>
	<g>
		<path d="M216.949,38.699h-52.068c-5.207,0-8.678,3.471-8.678,8.678v69.424c0,5.207,3.471,8.678,8.678,8.678h52.068
			c5.207,0,8.678-3.471,8.678-8.678V47.377C225.627,42.17,222.156,38.699,216.949,38.699z M208.271,108.123h-34.712V56.055h34.712
			V108.123z"/>
	</g>
</g>
<g>
	<g>
		<path d="M182.237,73.411h-17.356c-5.207,0-8.678,3.471-8.678,8.678s3.471,8.678,8.678,8.678h17.356
			c5.207,0,8.678-3.471,8.678-8.678S187.444,73.411,182.237,73.411z"/>
	</g>
</g>
<g>
	<g>
		<g>
			<path d="M17.356,64.733H8.678C3.471,64.733,0,68.204,0,73.411s3.471,8.678,8.678,8.678h8.678c5.207,0,8.678-3.471,8.678-8.678
				S22.563,64.733,17.356,64.733z"/>
			<path d="M52.068,64.733H43.39c-5.207,0-8.678,3.471-8.678,8.678s3.471,8.678,8.678,8.678h8.678c5.207,0,8.678-3.471,8.678-8.678
				S57.275,64.733,52.068,64.733z"/>
			<path d="M86.78,64.733h-8.678c-5.207,0-8.678,3.471-8.678,8.678s3.471,8.678,8.678,8.678h8.678c5.207,0,8.678-3.471,8.678-8.678
				S91.986,64.733,86.78,64.733z"/>
			<path d="M121.492,64.733h-8.678c-5.207,0-8.678,3.471-8.678,8.678s3.471,8.678,8.678,8.678h8.678
				c5.207,0,8.678-3.471,8.678-8.678S126.698,64.733,121.492,64.733z"/>
		</g>
	</g>
</g>
<g>
	<g>
		<g>
			<path d="M89.383,30.889l-8.678-1.736c-4.339-0.868-9.546,2.603-10.414,6.942c-0.868,5.207,2.603,9.546,6.942,10.414l8.678,1.736
				c0.868,0,0.868,0.868,1.736,0.868c4.339,0,7.81-3.471,8.678-7.81S93.722,31.757,89.383,30.889z"/>
			<path d="M55.539,23.947l-8.678-1.736c-4.339-0.868-8.678,1.736-10.414,6.942c-0.868,4.339,2.603,8.678,6.942,9.546l8.678,2.603
				c0.868,0,0.868,0,1.736,0c3.471,0,7.81-2.603,8.678-6.942S59.878,24.814,55.539,23.947z"/>
			<path d="M123.227,38.699l-8.678-1.736c-4.339-0.868-9.546,2.603-10.414,6.942s2.603,9.546,6.942,10.414l8.678,1.736
				c0.868,0,0.868,0,1.736,0c4.339,0,7.81-2.603,8.678-6.942S127.566,39.567,123.227,38.699z"/>
		</g>
	</g>
</g>
<g>
	<g>
		<g>
			<path d="M52.068,106.387l-8.678,1.736c-4.339,0.868-7.81,5.207-6.942,10.414c0.868,4.339,4.339,6.942,8.678,6.942
				c0.868,0,1.736,0,1.736-0.868l8.678-1.736c5.207-0.868,7.81-6.075,6.942-10.414C60.746,108.123,56.407,105.52,52.068,106.387z"/>
			<path d="M130.169,97.709c-0.868-5.207-6.075-7.81-10.414-6.942l-8.678,1.736c-5.207,0.868-7.81,6.075-6.942,10.414
				s4.339,6.942,8.678,6.942c0.868,0,1.736,0,1.736,0l8.678-1.736C128.434,107.255,131.037,102.048,130.169,97.709z"/>
			<path d="M85.912,98.577l-8.678,1.736c-4.339,0.868-7.81,6.075-6.942,10.414c0.868,4.339,4.339,6.942,8.678,6.942
				c0.868,0,1.736,0,1.736,0l8.678-1.736c5.207-0.868,7.81-5.207,6.942-10.414S90.251,97.709,85.912,98.577z"/>
		</g>
	</g>
</g>
<g>
	<g>
		<path d="M234.305,108.123h-86.78c-5.207,0-8.678,3.471-8.678,8.678v52.068c0,5.207,3.471,8.678,8.678,8.678h86.78
			c5.207,0,8.678-3.471,8.678-8.678v-52.068C242.983,111.594,239.512,108.123,234.305,108.123z M225.627,160.191h-69.424v-34.712
			h69.424V160.191z"/>
	</g>
</g>
<g>
	<g>
		<rect x="182.237" y="116.801" width="17.356" height="251.661"/>
	</g>
</g>
<g>
	<g>
		<path d="M364.475,73.411H216.949c-5.207,0-8.678,3.471-8.678,8.678s3.471,8.678,8.678,8.678h147.525
			c47.729,0,86.78,39.051,86.78,86.78v60.746c0,5.207,3.471,8.678,8.678,8.678c5.207,0,8.678-3.471,8.678-8.678v-60.746
			C468.61,120.272,421.749,73.411,364.475,73.411z"/>
	</g>
</g>
<g>
	<g>
		<path d="M459.932,229.614c-29.505,0-52.068,42.522-52.068,99.797c0,57.275,22.563,99.797,52.068,99.797
			c29.505,0,52.068-42.522,52.068-99.797C512,272.136,489.437,229.614,459.932,229.614z M459.932,411.852
			c-16.488,0-34.712-33.844-34.712-82.441c0-48.597,18.224-82.441,34.712-82.441s34.712,33.844,34.712,82.441
			C494.644,378.008,476.42,411.852,459.932,411.852z"/>
	</g>
</g>
</svg>